<svg viewBox="0 0 200 200" xmlns="http://www.w3.org/2000/svg">
  <!-- E -->
  <path d="M 140 50 L 75 50 L 75 150 L 140 150 M 75 100 L 125 100" fill="none" stroke="#60A5FA" stroke-width="32" stroke-linecap="round" stroke-linejoin="round"/>
  
  <!-- Pink Star -->
  <path d="M 35 35 l 3 6 l 7 1 l -5 4 l 1 7 l -6 -3 l -6 3 l 1 -7 l -5 -4 l 7 -1 Z" fill="#F472B6" transform="rotate(-15 35 35) scale(1.2)"/>
  
  <!-- Accents -->
  <circle cx="55" cy="115" r="5" fill="#FBBF24"/>
  <circle cx="65" cy="130" r="4" fill="#3B82F6"/>
  
  <!-- Cap -->
  <g transform="translate(60, 50) rotate(-25)">
    <!-- Base -->
    <path d="M -16 0 L -16 16 C -16 26 16 26 16 16 L 16 0 Z" fill="#1E3A8A"/>
    <!-- Top -->
    <path d="M 0 -16 L 32 0 L 0 16 L -32 0 Z" fill="#2563EB"/>
    <!-- Tassel -->
    <path d="M 0 0 Q 30 -20 40 15" fill="none" stroke="#FBBF24" stroke-width="2"/>
    <path d="M 38 15 L 42 15 L 44 24 L 36 24 Z" fill="#FBBF24" rx="1"/>
  </g>
</svg>
